<svg xmlns="http://www.w3.org/2000/svg" xmlns:xlink="http://www.w3.org/1999/xlink" width="500" zoomAndPan="magnify" viewBox="0 0 375 374.999991" height="500" preserveAspectRatio="xMidYMid meet" version="1.0"><defs><g/></defs><g fill="#67edff" fill-opacity="1"><g transform="translate(48.863636, 174.749989)"><g><path d="M 16.390625 -32.78125 C 16.023438 -33.65625 15.65625 -34.679688 15.28125 -35.859375 C 14.914062 -37.035156 14.429688 -38.519531 13.828125 -40.3125 L 13.828125 1.796875 L 5.609375 1.796875 L 5.609375 -48.0625 L 18.1875 -48.0625 L 30.421875 -17.078125 L 42.1875 -48.0625 L 54.90625 -48.0625 L 54.90625 1.796875 L 46.546875 1.796875 L 46.546875 -40.3125 C 46.035156 -38.238281 45.59375 -36.679688 45.21875 -35.640625 C 44.851562 -34.609375 44.507812 -33.65625 44.1875 -32.78125 L 33.75 -6.5 L 26.6875 -6.5 Z M 16.390625 -32.78125 "/></g></g></g><g fill="#67edff" fill-opacity="1"><g transform="translate(105.913952, 174.749989)"><g><path d="M 46.46875 1.796875 L 36.859375 1.796875 L 32.015625 -11.890625 L 15.21875 -11.890625 L 10.296875 1.796875 L 1.25 1.796875 L 19.78125 -48.0625 L 27.734375 -48.0625 Z M 17.765625 -19.296875 L 29.453125 -19.296875 L 26.078125 -29.453125 C 25.472656 -31.117188 25 -32.515625 24.65625 -33.640625 C 24.3125 -34.773438 23.953125 -35.941406 23.578125 -37.140625 C 23.398438 -36.441406 23.226562 -35.816406 23.0625 -35.265625 C 22.90625 -34.710938 22.734375 -34.144531 22.546875 -33.5625 C 22.359375 -32.988281 22.160156 -32.378906 21.953125 -31.734375 C 21.742188 -31.097656 21.476562 -30.335938 21.15625 -29.453125 Z M 17.765625 -19.296875 "/></g></g></g><g fill="#67edff" fill-opacity="1"><g transform="translate(150.171079, 174.749989)"><g><path d="M 38.796875 -48.0625 L 38.796875 -40.59375 L 24.203125 -40.59375 L 24.203125 1.796875 L 15.359375 1.796875 L 15.359375 -40.59375 L 0.6875 -40.59375 L 0.6875 -48.0625 Z M 38.796875 -48.0625 "/></g></g></g><g fill="#67edff" fill-opacity="1"><g transform="translate(186.19908, 174.749989)"><g><path d="M 35.125 -20.546875 L 14.453125 -20.546875 L 14.453125 1.796875 L 5.609375 1.796875 L 5.609375 -48.0625 L 14.453125 -48.0625 L 14.453125 -27.875 L 35.125 -27.875 L 35.125 -48.0625 L 43.984375 -48.0625 L 43.984375 1.796875 L 35.125 1.796875 Z M 35.125 -20.546875 "/></g></g></g><g fill="#ffffff" fill-opacity="1"><g transform="translate(48.863636, 239.999984)"><g><path d="M 5.609375 -48.0625 L 24.96875 -48.0625 C 35.425781 -48.0625 40.65625 -44.003906 40.65625 -35.890625 L 40.65625 -34.4375 C 40.65625 -33.332031 40.53125 -32.257812 40.28125 -31.21875 C 40.03125 -30.1875 39.59375 -29.21875 38.96875 -28.3125 C 38.34375 -27.414062 37.523438 -26.632812 36.515625 -25.96875 C 35.503906 -25.300781 34.257812 -24.78125 32.78125 -24.40625 C 35.820312 -23.945312 38.273438 -22.804688 40.140625 -20.984375 C 42.015625 -19.160156 42.953125 -16.523438 42.953125 -13.078125 L 42.953125 -11.34375 C 42.953125 -7.238281 41.660156 -4.019531 39.078125 -1.6875 C 36.492188 0.632812 32.503906 1.796875 27.109375 1.796875 L 5.609375 1.796875 Z M 14.390625 -5.53125 L 22.40625 -5.53125 C 24.34375 -5.53125 26.035156 -5.609375 27.484375 -5.765625 C 28.941406 -5.929688 30.140625 -6.253906 31.078125 -6.734375 C 32.023438 -7.222656 32.726562 -7.90625 33.1875 -8.78125 C 33.65625 -9.65625 33.890625 -10.832031 33.890625 -12.3125 L 33.890625 -13.828125 C 33.890625 -15.117188 33.671875 -16.191406 33.234375 -17.046875 C 32.796875 -17.898438 32.066406 -18.59375 31.046875 -19.125 C 30.035156 -19.65625 28.710938 -20.023438 27.078125 -20.234375 C 25.441406 -20.441406 23.445312 -20.546875 21.09375 -20.546875 L 14.390625 -20.546875 Z M 14.390625 -40.734375 L 14.390625 -27.734375 L 20.890625 -27.734375 C 22.585938 -27.734375 24.117188 -27.78125 25.484375 -27.875 C 26.847656 -27.96875 27.976562 -28.21875 28.875 -28.625 C 29.769531 -29.039062 30.457031 -29.675781 30.9375 -30.53125 C 31.425781 -31.382812 31.671875 -32.59375 31.671875 -34.15625 L 31.671875 -35.40625 C 31.671875 -37.53125 30.851562 -38.945312 29.21875 -39.65625 C 27.582031 -40.375 24.894531 -40.734375 21.15625 -40.734375 Z M 14.390625 -40.734375 "/></g></g></g><g fill="#ffffff" fill-opacity="1"><g transform="translate(91.115346, 239.999984)"><g><path d="M 24.890625 -48.828125 C 27.703125 -48.828125 30.390625 -48.421875 32.953125 -47.609375 C 35.515625 -46.804688 37.757812 -45.539062 39.6875 -43.8125 C 41.625 -42.082031 43.15625 -39.859375 44.28125 -37.140625 C 45.414062 -34.421875 45.984375 -31.125 45.984375 -27.25 L 45.984375 -19.015625 C 45.984375 -15.097656 45.414062 -11.765625 44.28125 -9.015625 C 43.15625 -6.273438 41.632812 -4.050781 39.71875 -2.34375 C 37.8125 -0.644531 35.578125 0.59375 33.015625 1.375 C 30.460938 2.164062 27.753906 2.5625 24.890625 2.5625 C 22.035156 2.5625 19.328125 2.164062 16.765625 1.375 C 14.210938 0.59375 11.976562 -0.644531 10.0625 -2.34375 C 8.144531 -4.050781 6.617188 -6.273438 5.484375 -9.015625 C 4.359375 -11.765625 3.796875 -15.097656 3.796875 -19.015625 L 3.796875 -27.25 C 3.796875 -31.125 4.359375 -34.421875 5.484375 -37.140625 C 6.617188 -39.859375 8.15625 -42.082031 10.09375 -43.8125 C 12.03125 -45.539062 14.273438 -46.804688 16.828125 -47.609375 C 19.390625 -48.421875 22.078125 -48.828125 24.890625 -48.828125 Z M 24.890625 -5.53125 C 26.597656 -5.53125 28.1875 -5.75 29.65625 -6.1875 C 31.132812 -6.625 32.425781 -7.394531 33.53125 -8.5 C 34.644531 -9.613281 35.507812 -11.113281 36.125 -13 C 36.75 -14.894531 37.0625 -17.269531 37.0625 -20.125 L 37.0625 -26.140625 C 37.0625 -28.992188 36.75 -31.363281 36.125 -33.25 C 35.507812 -35.144531 34.644531 -36.644531 33.53125 -37.75 C 32.425781 -38.863281 31.132812 -39.640625 29.65625 -40.078125 C 28.1875 -40.515625 26.597656 -40.734375 24.890625 -40.734375 C 23.234375 -40.734375 21.664062 -40.515625 20.1875 -40.078125 C 18.71875 -39.640625 17.425781 -38.863281 16.3125 -37.75 C 15.207031 -36.644531 14.332031 -35.144531 13.6875 -33.25 C 13.039062 -31.363281 12.71875 -28.992188 12.71875 -26.140625 L 12.71875 -20.125 C 12.71875 -17.269531 13.039062 -14.894531 13.6875 -13 C 14.332031 -11.113281 15.207031 -9.613281 16.3125 -8.5 C 17.425781 -7.394531 18.71875 -6.625 20.1875 -6.1875 C 21.664062 -5.75 23.234375 -5.53125 24.890625 -5.53125 Z M 24.890625 -5.53125 "/></g></g></g><g fill="#ffffff" fill-opacity="1"><g transform="translate(137.447046, 239.999984)"><g><path d="M 46.46875 1.796875 L 36.859375 1.796875 L 32.015625 -11.890625 L 15.21875 -11.890625 L 10.296875 1.796875 L 1.25 1.796875 L 19.78125 -48.0625 L 27.734375 -48.0625 Z M 17.765625 -19.296875 L 29.453125 -19.296875 L 26.078125 -29.453125 C 25.472656 -31.117188 25 -32.515625 24.65625 -33.640625 C 24.3125 -34.773438 23.953125 -35.941406 23.578125 -37.140625 C 23.398438 -36.441406 23.226562 -35.816406 23.0625 -35.265625 C 22.90625 -34.710938 22.734375 -34.144531 22.546875 -33.5625 C 22.359375 -32.988281 22.160156 -32.378906 21.953125 -31.734375 C 21.742188 -31.097656 21.476562 -30.335938 21.15625 -29.453125 Z M 17.765625 -19.296875 "/></g></g></g><g fill="#ffffff" fill-opacity="1"><g transform="translate(181.704173, 239.999984)"><g><path d="M 24.625 -18.1875 L 14.453125 -18.1875 L 14.453125 1.796875 L 5.609375 1.796875 L 5.609375 -48.0625 L 24.484375 -48.0625 C 27.066406 -48.0625 29.359375 -47.710938 31.359375 -47.015625 C 33.367188 -46.328125 35.050781 -45.382812 36.40625 -44.1875 C 37.769531 -42.988281 38.804688 -41.546875 39.515625 -39.859375 C 40.234375 -38.179688 40.59375 -36.351562 40.59375 -34.375 L 40.59375 -31.8125 C 40.59375 -29.1875 39.945312 -26.820312 38.65625 -24.71875 C 37.363281 -22.625 35.425781 -21 32.84375 -19.84375 C 34.507812 -16.207031 36.132812 -12.601562 37.71875 -9.03125 C 39.3125 -5.457031 40.9375 -1.847656 42.59375 1.796875 L 32.984375 1.796875 Z M 14.453125 -40.65625 L 14.453125 -25.59375 L 22.609375 -25.59375 C 26.023438 -25.59375 28.410156 -26.191406 29.765625 -27.390625 C 31.128906 -28.585938 31.8125 -30.128906 31.8125 -32.015625 L 31.8125 -34.09375 C 31.8125 -36.03125 31.164062 -37.609375 29.875 -38.828125 C 28.582031 -40.046875 26.414062 -40.65625 23.375 -40.65625 Z M 14.453125 -40.65625 "/></g></g></g><g fill="#ffffff" fill-opacity="1"><g transform="translate(223.886737, 239.999984)"><g><path d="M 22.953125 -48.0625 C 30.378906 -48.0625 35.84375 -46.226562 39.34375 -42.5625 C 42.851562 -38.894531 44.609375 -33.601562 44.609375 -26.6875 L 44.609375 -19.578125 C 44.609375 -16.117188 44.210938 -13.0625 43.421875 -10.40625 C 42.640625 -7.757812 41.382812 -5.535156 39.65625 -3.734375 C 37.925781 -1.929688 35.703125 -0.5625 32.984375 0.375 C 30.265625 1.320312 26.96875 1.796875 23.09375 1.796875 L 5.609375 1.796875 L 5.609375 -48.0625 Z M 14.390625 -5.671875 L 21.78125 -5.671875 C 24 -5.671875 25.972656 -5.921875 27.703125 -6.421875 C 29.429688 -6.929688 30.878906 -7.738281 32.046875 -8.84375 C 33.222656 -9.957031 34.125 -11.421875 34.75 -13.234375 C 35.375 -15.054688 35.6875 -17.285156 35.6875 -19.921875 L 35.6875 -26.34375 C 35.6875 -31.601562 34.519531 -35.289062 32.1875 -37.40625 C 29.863281 -39.53125 26.394531 -40.59375 21.78125 -40.59375 L 14.390625 -40.59375 Z M 14.390625 -5.671875 "/></g></g></g></svg>